<svg id="Groupe_674" data-name="Groupe 674" xmlns="http://www.w3.org/2000/svg" width="19.935" height="19.317" viewBox="0 0 15.935 16.317">
  <path id="Tracé_191" data-name="Tracé 191" d="M25.688,19.964c-.242-.863-.492-1.756-.656-2.651-.07-.384-.115-.78-.159-1.162a11.488,11.488,0,0,0-.321-1.875A5.821,5.821,0,0,0,23.1,11.719a5.681,5.681,0,0,0-4.043-1.679,5.739,5.739,0,0,0-5.137,3.218,6.107,6.107,0,0,0-.48,1.442,7.941,7.941,0,0,0-.127,1.007c-.018.212-.035.424-.064.633-.069.5-.165,1.03-.292,1.618-.168.773-.372,1.554-.568,2.309q-.1.4-.205.794h13.81C25.892,20.7,25.791,20.33,25.688,19.964ZM15.11,16.57a.2.2,0,0,1-.2.178l-.027,0a.2.2,0,0,1-.177-.229l.078-.6a.2.2,0,0,1,.406.053Zm2.328-4.461a4.7,4.7,0,0,0-2.11,2.72.2.2,0,0,1-.194.14.2.2,0,0,1-.065-.01.2.2,0,0,1-.129-.259,5.164,5.164,0,0,1,2.3-2.946.2.2,0,1,1,.2.355Z" transform="translate(-11.12 -10.041)" fill="#292929"/>
  <path id="Tracé_192" data-name="Tracé 192" d="M26.281,32.762,25.353,29.6H11.312l-.923,3.163a.507.507,0,0,0,.489.654H25.793a.508.508,0,0,0,.489-.654Z" transform="translate(-10.368 -18.168)" fill="#292929"/>
  <path id="Tracé_193" data-name="Tracé 193" d="M24.044,36.807H22.132a.957.957,0,0,0,.911.674h.544a.957.957,0,0,0,.911-.674Z" transform="translate(-15.256 -21.163)" fill="#292929"/>
</svg>
