<svg xmlns="http://www.w3.org/2000/svg" width="68" height="66" viewBox="0 0 68 66">
  <path id="ic_notifications_active_24px" d="M20.957,7.848,16.08,3.008A35.208,35.208,0,0,0,2.03,29.577H8.85A28.534,28.534,0,0,1,20.957,7.848ZM63.21,29.577h6.82A35.422,35.422,0,0,0,55.98,3.008l-4.843,4.84A28.7,28.7,0,0,1,63.21,29.577Zm-6.718,1.692c0-10.391-5.593-19.089-15.346-21.391v-2.3a5.115,5.115,0,0,0-10.231,0v2.3c-9.787,2.3-15.346,10.966-15.346,21.391V48.192l-6.82,6.769v3.385H63.312V54.962l-6.82-6.769ZM36.03,68.5a6.017,6.017,0,0,0,1.364-.135A6.908,6.908,0,0,0,42.3,64.371a6.751,6.751,0,0,0,.512-2.64H29.175A6.844,6.844,0,0,0,36.03,68.5Z" transform="translate(-2.03 -2.5)" fill="#29b5f6"/>
</svg>
