<svg xmlns="http://www.w3.org/2000/svg" width="20" height="20" viewBox="0 0 20 20">
  <path id="Tracé_242" data-name="Tracé 242" d="M20,14.376a5.622,5.622,0,0,0-3.749-5.3V2.5H15V1.249h1.25V0H1.876a2.115,2.115,0,0,0-.9.221A1.765,1.765,0,0,0,0,1.875s0,.008,0,.011V18.75A1.224,1.224,0,0,0,1.251,20H14.427l0,0A5.622,5.622,0,0,0,20,14.376ZM1.783,2.488a.787.787,0,0,1-.362-.149c-.086-.084-.161-.152-.17-.464.021-.4.121-.429.279-.535a.923.923,0,0,1,.252-.078c.073-.014.092-.009.093-.013H13.751V2.5H1.876A.5.5,0,0,1,1.783,2.488ZM2.5,18.75v-15H15V8.788A5.562,5.562,0,0,0,10.842,10H3.75v1.25H9.7a5.6,5.6,0,0,0-.622,1.25H3.75v1.25H8.786a5.739,5.739,0,0,0-.037.626,5.609,5.609,0,0,0,2.092,4.374Zm11.875,0a4.375,4.375,0,1,1,4.375-4.374A4.381,4.381,0,0,1,14.375,18.75ZM13.75,7.5h-10V8.75s7.5.313,10,0S13.75,7.5,13.75,7.5Z" transform="translate(0)"/>
</svg>
