<svg height="395pt" viewBox="1 1 395.737 395" width="395pt" xmlns="http://www.w3.org/2000/svg"><path d="m231.164062 293.300781c-3.707031-5.855469-7.015624-11.953125-9.898437-18.257812-4.089844 5.320312-10.476563 8.359375-17.183594 8.183593h-12.601562c-6.5625.1875-12.832031-2.730468-16.914063-7.871093-2.847656 6.183593-6.097656 12.175781-9.738281 17.933593 10.78125 3.269532 21.921875 5.230469 33.171875 5.847657 11.25-.613281 22.382812-2.570313 33.164062-5.835938zm0 0"/><path d="m141.429688 71.082031c0-39.054687-31.660157-70.714843-70.714844-70.714843-39.054688 0-70.714844 31.660156-70.714844 70.714843 0 39.054688 31.660156 70.714844 70.714844 70.714844 39.035156-.046875 70.667968-31.679687 70.714844-70.714844zm-42.429688 7.074219h-28.285156c-3.90625 0-7.074219-3.167969-7.074219-7.074219v-49.5c0-3.90625 3.167969-7.070312 7.074219-7.070312s7.070312 3.164062 7.070312 7.070312v42.429688h21.214844c3.90625 0 7.070312 3.164062 7.070312 7.070312s-3.164062 7.074219-7.070312 7.074219zm0 0"/><path d="m163.910156 224.632812c0 1.914063-.101562 3.789063-.1875 5.65625-1.671875 7.265626 1.125 14.835938 7.121094 19.269532 4.355469 3.757812 8.210938 8.058594 11.476562 12.792968 4.011719 5.464844 5.121094 6.761719 9.195313 6.761719h12.566406c4.042969 0 5.15625-1.296875 9.191407-6.761719 3.265624-4.734374 7.121093-9.03125 11.46875-12.792968 6-4.429688 8.796874-11.996094 7.121093-19.261719-.089843-1.847656-.183593-3.71875-.183593-5.65625.0625-3.753906.539062-7.488281 1.414062-11.140625 2.1875-10.664062 2.785156-21.59375 1.777344-32.433594-1.289063-23.59375-33.886719-25.125-34.214844-25.125h-6.03125c-1.054688.054688-32.660156 1.675782-33.878906 25.117188-1.007813 10.839844-.410156 21.769531 1.773437 32.4375.871094 3.648437 1.335938 7.382812 1.390625 11.136718zm0 0"/><path d="m198 350.023438c14.582031-11.21875 26.300781-25.730469 34.199219-42.34375-11.140625 3.210937-22.617188 5.09375-34.199219 5.597656-11.585938-.503906-23.070312-2.382813-34.210938-5.597656 7.90625 16.613281 19.628907 31.121093 34.210938 42.34375zm0 0"/><path d="m388.929688 64.011719h-6.246094c-4.648438-.007813-8.746094-3.058594-10.082032-7.511719-.898437-2.96875-2.085937-5.847656-3.535156-8.589844-2.230468-4.105468-1.484375-9.1875 1.828125-12.480468l4.398438-4.371094c2.011719-2.015625 2.617187-5.042969 1.535156-7.679688-1.082031-2.632812-3.636719-4.363281-6.484375-4.386718-1.878906 0-3.679688.75-5 2.089843l-4.367188 4.394531c-3.289062 3.316407-8.371093 4.0625-12.476562 1.839844-2.742188-1.453125-5.621094-2.636718-8.589844-3.535156-4.484375-1.324219-7.554687-5.441406-7.554687-10.113281v-6.226563c0-3.90625-3.164063-7.074218-7.070313-7.074218s-7.070312 3.167968-7.070312 7.074218v6.242188c-.007813 4.648437-3.058594 8.746094-7.511719 10.085937-2.972656.898438-5.847656 2.082031-8.589844 3.535157-4.109375 2.21875-9.1875 1.472656-12.484375-1.832032l-4.367187-4.398437c-1.320313-1.335938-3.121094-2.089844-5-2.085938-2.847657.023438-5.40625 1.75-6.484375 4.386719-1.082032 2.632812-.476563 5.660156 1.53125 7.675781l4.402344 4.371094c3.308593 3.292969 4.054687 8.367187 1.835937 12.472656-1.453125 2.746094-2.636719 5.621094-3.535156 8.59375-1.335938 4.480469-5.464844 7.542969-10.140625 7.523438h-6.230469c-3.90625 0-7.070313 3.167969-7.070313 7.070312 0 3.90625 3.164063 7.074219 7.070313 7.074219h6.246094c4.648437.003906 8.746093 3.054688 10.082031 7.507812.898438 2.972657 2.082031 5.851563 3.535156 8.59375 2.226563 4.105469 1.484375 9.1875-1.832031 12.480469l-4.394531 4.371094c-2.011719 2.015625-2.617188 5.042969-1.535156 7.675781 1.078124 2.636719 3.636718 4.363282 6.484374 4.386719 1.878907.003906 3.679688-.746094 5-2.085937l4.367188-4.398438c1.964844-1.984375 4.640625-3.097656 7.433594-3.097656 1.757812.003906 3.488281.441406 5.042968 1.265625 2.742188 1.453125 5.621094 2.636719 8.589844 3.535156 4.480469 1.324219 7.554688 5.4375 7.554688 10.105469v6.230468c0 3.90625 3.164062 7.070313 7.070312 7.070313s7.070313-3.164063 7.070313-7.070313v-6.242187c.007812-4.652344 3.058593-8.746094 7.511719-10.085937 2.96875-.898438 5.847656-2.082032 8.589843-3.535157 4.109375-2.222656 9.1875-1.476562 12.484375 1.832031l4.367188 4.398438c1.320312 1.335938 3.121094 2.089844 5 2.085938 2.847656-.023438 5.402344-1.753907 6.484375-4.386719 1.082031-2.636719.476562-5.660157-1.535157-7.675781l-4.398437-4.371094c-3.308594-3.292969-4.058594-8.367188-1.835937-12.476563 1.453124-2.742187 2.636718-5.621093 3.535156-8.589843 1.335937-4.480469 5.464844-7.542969 10.140625-7.523438h6.230469c3.90625 0 7.070312-3.167969 7.070312-7.074219s-3.167969-7.070312-7.070312-7.070312zm-63.644532 42.429687c-19.527344 0-35.355468-15.832031-35.355468-35.359375 0-19.527343 15.828124-35.355469 35.355468-35.355469s35.359375 15.828126 35.359375 35.355469c-.023437 19.519531-15.839843 35.335938-35.359375 35.359375zm0 0"/><path d="m346.5 71.082031c0 11.71875-9.496094 21.214844-21.214844 21.214844-11.714844 0-21.214844-9.496094-21.214844-21.214844 0-11.714843 9.5-21.214843 21.214844-21.214843 11.71875 0 21.214844 9.5 21.214844 21.214843zm0 0"/><path d="m248.007812 305.046875c-2.941406 11.179687-12.769531 33.457031-45.585937 59.71875-.171875.140625-.382813.167969-.566406.289063-2.34375 1.523437-5.367188 1.523437-7.710938 0-.183593-.121094-.386719-.152344-.5625-.289063-32.828125-26.265625-42.648437-48.539063-45.589843-59.71875-13.953126 1.664063-27.046876 7.613281-37.480469 17.027344-8.425781 10.472656-12.542969 23.765625-11.511719 37.167969 0 30.304687 73.316406 37.125 99 37.125s99-6.859376 99-37.125c1.027344-13.402344-3.097656-26.695313-11.527344-37.167969-10.429687-9.410157-23.515625-15.359375-37.464844-17.027344zm0 0"/><path d="m176.785156 184.226562c-1.808594 0-3.617187-.691406-5-2.074218l-77.785156-77.785156c-2.761719-2.761719-2.761719-7.234376 0-10 2.761719-2.761719 7.238281-2.761719 10 0l77.785156 77.785156c2.761719 2.761718 2.761719 7.238281 0 10-1.382812 1.382812-3.191406 2.074218-5 2.074218zm0 0"/><path d="m219.214844 184.226562c-1.808594 0-3.617188-.691406-5-2.074218-2.761719-2.761719-2.761719-7.234375 0-10l63.640625-63.640625c2.761719-2.761719 7.238281-2.761719 10 0s2.761719 7.238281 0 10l-63.640625 63.640625c-1.382813 1.382812-3.191406 2.074218-5 2.074218zm0 0"/></svg>